  0
SECTION
  2
HEADER
  9
$ACADVER
  1
AC1009
  9
$DWGCODEPAGE
  3
ansi_1252
  9
$INSBASE
 10
0.0
 20
0.0
 30
0.0
  9
$EXTMIN
 10
1240.0
 20
20.0
 30
0.0
  9
$EXTMAX
 10
2160.0
 20
1080.0
 30
0.0
  9
$LIMMIN
 10
0.0
 20
0.0
  9
$LIMMAX
 10
12.0
 20
9.0
  9
$ORTHOMODE
 70
     0
  9
$REGENMODE
 70
     1
  9
$FILLMODE
 70
     1
  9
$QTEXTMODE
 70
     0
  9
$MIRRTEXT
 70
     1
  9
$DRAGMODE
 70
     2
  9
$LTSCALE
 40
1.0
  9
$OSMODE
 70
    37
  9
$ATTMODE
 70
     1
  9
$TEXTSIZE
 40
0.2
  9
$TRACEWID
 40
0.05
  9
$TEXTSTYLE
  7
STANDARD
  9
$CLAYER
  8
0
  9
$CELTYPE
  6
BYLAYER
  9
$CECOLOR
 62
   256
  9
$DIMSCALE
 40
1.0
  9
$DIMASZ
 40
0.18
  9
$DIMEXO
 40
0.0625
  9
$DIMDLI
 40
0.38
  9
$DIMRND
 40
0.0
  9
$DIMDLE
 40
0.0
  9
$DIMEXE
 40
0.18
  9
$DIMTP
 40
0.0
  9
$DIMTM
 40
0.0
  9
$DIMTXT
 40
0.18
  9
$DIMCEN
 40
0.09
  9
$DIMTSZ
 40
0.0
  9
$DIMTOL
 70
     0
  9
$DIMLIM
 70
     0
  9
$DIMTIH
 70
     1
  9
$DIMTOH
 70
     1
  9
$DIMSE1
 70
     0
  9
$DIMSE2
 70
     0
  9
$DIMTAD
 70
     0
  9
$DIMZIN
 70
     0
  9
$DIMBLK
  1

  9
$DIMASO
 70
     1
  9
$DIMSHO
 70
     1
  9
$DIMPOST
  1

  9
$DIMAPOST
  1

  9
$DIMALT
 70
     0
  9
$DIMALTD
 70
     2
  9
$DIMALTF
 40
25.4
  9
$DIMLFAC
 40
1.0
  9
$DIMTOFL
 70
     0
  9
$DIMTVP
 40
0.0
  9
$DIMTIX
 70
     0
  9
$DIMSOXD
 70
     0
  9
$DIMSAH
 70
     0
  9
$DIMBLK1
  1

  9
$DIMBLK2
  1

  9
$DIMSTYLE
  2
STANDARD_ACAD
  9
$DIMCLRD
 70
     0
  9
$DIMCLRE
 70
     0
  9
$DIMCLRT
 70
     0
  9
$DIMTFAC
 40
1.0
  9
$DIMGAP
 40
0.09
  9
$LUNITS
 70
     2
  9
$LUPREC
 70
     2
  9
$SKETCHINC
 40
0.1
  9
$FILLETRAD
 40
0.0
  9
$AUNITS
 70
     0
  9
$AUPREC
 70
     0
  9
$MENU
  1
.
  9
$ELEVATION
 40
0.0
  9
$PELEVATION
 40
0.0
  9
$THICKNESS
 40
0.0
  9
$LIMCHECK
 70
     0
  9
$CHAMFERA
 40
0.0
  9
$CHAMFERB
 40
0.0
  9
$SKPOLY
 70
     0
  9
$TDCREATE
 40
2460599.90564022
  9
$TDUPDATE
 40
2460599.905660209
  9
$TDINDWG
 40
0.0000000116
  9
$TDUSRTIMER
 40
0.0000000116
  9
$USRTIMER
 70
     1
  9
$ANGBASE
 50
0.0
  9
$ANGDIR
 70
     0
  9
$PDMODE
 70
     0
  9
$PDSIZE
 40
0.0
  9
$PLINEWID
 40
0.0
  9
$COORDS
 70
     1
  9
$SPLFRAME
 70
     0
  9
$SPLINETYPE
 70
     6
  9
$SPLINESEGS
 70
     8
  9
$ATTDIA
 70
     0
  9
$ATTREQ
 70
     1
  9
$HANDLING
 70
     1
  9
$HANDSEED
  5
D7
  9
$SURFTAB1
 70
     6
  9
$SURFTAB2
 70
     6
  9
$SURFTYPE
 70
     6
  9
$SURFU
 70
     6
  9
$SURFV
 70
     6
  9
$UCSNAME
  2

  9
$UCSORG
 10
0.0
 20
0.0
 30
0.0
  9
$UCSXDIR
 10
1.0
 20
0.0
 30
0.0
  9
$UCSYDIR
 10
0.0
 20
1.0
 30
0.0
  9
$PUCSNAME
  2

  9
$PUCSORG
 10
0.0
 20
0.0
 30
0.0
  9
$PUCSXDIR
 10
1.0
 20
0.0
 30
0.0
  9
$PUCSYDIR
 10
0.0
 20
1.0
 30
0.0
  9
$USERI1
 70
     0
  9
$USERI2
 70
     0
  9
$USERI3
 70
     0
  9
$USERI4
 70
     0
  9
$USERI5
 70
     0
  9
$USERR1
 40
0.0
  9
$USERR2
 40
0.0
  9
$USERR3
 40
0.0
  9
$USERR4
 40
0.0
  9
$USERR5
 40
0.0
  9
$WORLDVIEW
 70
     1
  9
$SHADEDGE
 70
     3
  9
$SHADEDIF
 70
    70
  9
$TILEMODE
 70
     1
  9
$MAXACTVP
 70
    64
  9
$PLIMCHECK
 70
     0
  9
$PEXTMIN
 10
1.000000000000000E+20
 20
1.000000000000000E+20
 30
1.000000000000000E+20
  9
$PEXTMAX
 10
-1.000000000000000E+20
 20
-1.000000000000000E+20
 30
-1.000000000000000E+20
  9
$PLIMMIN
 10
0.0
 20
0.0
  9
$PLIMMAX
 10
12.0
 20
9.0
  9
$UNITMODE
 70
     0
  9
$VISRETAIN
 70
     1
  9
$PLINEGEN
 70
     0
  9
$PSLTSCALE
 70
     1
  0
ENDSEC
  0
SECTION
  2
TABLES
  0
TABLE
  2
VPORT
 70
     1
  0
VPORT
  2
*ACTIVE
 70
     0
 10
0.0
 20
0.0
 11
1.0
 21
1.0
 12
10.42990654205607
 22
4.5
 13
0.0
 23
0.0
 14
0.5
 24
0.5
 15
0.5
 25
0.5
 16
0.0
 26
0.0
 36
1.0
 17
0.0
 27
0.0
 37
0.0
 40
9.0
 41
1.972972972850329
 42
50.0
 43
0.0
 44
0.0
 50
0.0
 51
0.0
 71
     0
 72
   100
 73
     1
 74
     3
 75
     0
 76
     0
 77
     0
 78
     0
  0
ENDTAB
  0
TABLE
  2
LTYPE
 70
     1
  0
LTYPE
  2
CONTINUOUS
 70
     0
  3
Solid line
 72
    65
 73
     0
 40
0.0
  0
ENDTAB
  0
TABLE
  2
LAYER
 70
     2
  0
LAYER
  2
0
 70
     0
 62
     7
  6
CONTINUOUS
  0
LAYER
  2
\U+041F\U+041E_\U+0423\U+041C\U+041E\U+041B\U+0427\U+0410\U+041D\U+0418\U+042E
 70
     0
 62
     7
  6
CONTINUOUS
  0
ENDTAB
  0
TABLE
  2
STYLE
 70
     1
  0
STYLE
  2
STANDARD
 70
     0
 40
0.0
 41
1.0
 50
0.0
 71
     0
 42
0.2
  3
txt
  4

  0
ENDTAB
  0
TABLE
  2
VIEW
 70
     0
  0
ENDTAB
  0
TABLE
  2
UCS
 70
     0
  0
ENDTAB
  0
TABLE
  2
APPID
 70
     2
  0
APPID
  2
ACAD
 70
     0
  0
APPID
  2
RHINO
 70
     0
  0
ENDTAB
  0
TABLE
  2
DIMSTYLE
 70
     1
  0
DIMSTYLE
  2
STANDARD_ACAD
 70
     0
  3

  4

  5

  6

  7

 40
1.0
 41
0.18
 42
0.0625
 43
0.38
 44
0.18
 45
0.0
 46
0.0
 47
0.0
 48
0.0
140
0.18
141
0.09
142
0.0
143
25.4
144
1.0
145
0.0
146
1.0
147
0.09
 71
     0
 72
     0
 73
     1
 74
     1
 75
     0
 76
     0
 77
     0
 78
     0
170
     0
171
     2
172
     0
173
     0
174
     0
175
     0
176
     0
177
     0
178
     0
  0
ENDTAB
  0
ENDSEC
  0
SECTION
  2
BLOCKS
  0
BLOCK
  8
0
  2
$MODEL_SPACE
 70
     0
 10
0.0
 20
0.0
 30
0.0
  3
$MODEL_SPACE
  1

  0
ENDBLK
  5
21
  8
0
  0
BLOCK
 67
     1
  8
0
  2
$PAPER_SPACE
 70
     0
 10
0.0
 20
0.0
 30
0.0
  3
$PAPER_SPACE
  1

  0
ENDBLK
  5
1D
 67
     1
  8
0
  0
ENDSEC
  0
SECTION
  2
ENTITIES
  0
LINE
  5
60
  8
\U+041F\U+041E_\U+0423\U+041C\U+041E\U+041B\U+0427\U+0410\U+041D\U+0418\U+042E
 10
2020.0
 20
685.625
 30
0.0
 11
2020.0
 21
683.4375
 31
0.0
  0
LINE
  5
61
  8
\U+041F\U+041E_\U+0423\U+041C\U+041E\U+041B\U+0427\U+0410\U+041D\U+0418\U+042E
 10
2020.0
 20
683.4375
 30
0.0
 11
2050.0
 21
683.4375
 31
0.0
  0
LINE
  5
62
  8
\U+041F\U+041E_\U+0423\U+041C\U+041E\U+041B\U+0427\U+0410\U+041D\U+0418\U+042E
 10
2050.0
 20
683.4375
 30
0.0
 11
2050.0
 21
710.0
 31
0.0
  0
LINE
  5
63
  8
\U+041F\U+041E_\U+0423\U+041C\U+041E\U+041B\U+0427\U+0410\U+041D\U+0418\U+042E
 10
2050.0
 20
710.0
 30
0.0
 11
2020.0
 21
710.0
 31
0.0
  0
LINE
  5
64
  8
\U+041F\U+041E_\U+0423\U+041C\U+041E\U+041B\U+0427\U+0410\U+041D\U+0418\U+042E
 10
2020.0
 20
710.0
 30
0.0
 11
2020.0
 21
683.4375
 31
0.0
  0
LINE
  5
65
  8
\U+041F\U+041E_\U+0423\U+041C\U+041E\U+041B\U+0427\U+0410\U+041D\U+0418\U+042E
 10
1350.0
 20
685.625
 30
0.0
 11
1350.0
 21
683.4375
 31
0.0
  0
LINE
  5
66
  8
\U+041F\U+041E_\U+0423\U+041C\U+041E\U+041B\U+0427\U+0410\U+041D\U+0418\U+042E
 10
1350.0
 20
683.4375
 30
0.0
 11
1380.0
 21
683.4375
 31
0.0
  0
LINE
  5
67
  8
\U+041F\U+041E_\U+0423\U+041C\U+041E\U+041B\U+0427\U+0410\U+041D\U+0418\U+042E
 10
1380.0
 20
683.4375
 30
0.0
 11
1380.0
 21
710.0
 31
0.0
  0
LINE
  5
68
  8
\U+041F\U+041E_\U+0423\U+041C\U+041E\U+041B\U+0427\U+0410\U+041D\U+0418\U+042E
 10
1380.0
 20
710.0
 30
0.0
 11
1350.0
 21
710.0
 31
0.0
  0
LINE
  5
69
  8
\U+041F\U+041E_\U+0423\U+041C\U+041E\U+041B\U+0427\U+0410\U+041D\U+0418\U+042E
 10
1350.0
 20
710.0
 30
0.0
 11
1350.0
 21
683.4375
 31
0.0
  0
LINE
  5
6A
  8
\U+041F\U+041E_\U+0423\U+041C\U+041E\U+041B\U+0427\U+0410\U+041D\U+0418\U+042E
 10
1350.0
 20
740.0
 30
0.0
 11
2050.0
 21
740.0
 31
0.0
  0
LINE
  5
6B
  8
\U+041F\U+041E_\U+0423\U+041C\U+041E\U+041B\U+0427\U+0410\U+041D\U+0418\U+042E
 10
2050.0
 20
740.0
 30
0.0
 11
2050.0
 21
1030.0
 31
0.0
  0
LINE
  5
6C
  8
\U+041F\U+041E_\U+0423\U+041C\U+041E\U+041B\U+0427\U+0410\U+041D\U+0418\U+042E
 10
2050.0
 20
1030.0
 30
0.0
 11
1350.0
 21
1030.0
 31
0.0
  0
LINE
  5
6D
  8
\U+041F\U+041E_\U+0423\U+041C\U+041E\U+041B\U+0427\U+0410\U+041D\U+0418\U+042E
 10
1350.0
 20
1030.0
 30
0.0
 11
1350.0
 21
740.0
 31
0.0
  0
ARC
  5
6E
  8
\U+041F\U+041E_\U+0423\U+041C\U+041E\U+041B\U+0427\U+0410\U+041D\U+0418\U+042E
 10
1260.0
 20
40.0
 30
0.0
 40
20.0
 50
180.0
 51
270.0
  0
LINE
  5
6F
  8
\U+041F\U+041E_\U+0423\U+041C\U+041E\U+041B\U+0427\U+0410\U+041D\U+0418\U+042E
 10
1260.0
 20
20.0
 30
0.0
 11
2140.0
 21
20.0
 31
0.0
  0
ARC
  5
70
  8
\U+041F\U+041E_\U+0423\U+041C\U+041E\U+041B\U+0427\U+0410\U+041D\U+0418\U+042E
 10
2140.0
 20
40.0
 30
0.0
 40
20.0
 50
270.0
 51
0.0
  0
LINE
  5
71
  8
\U+041F\U+041E_\U+0423\U+041C\U+041E\U+041B\U+0427\U+0410\U+041D\U+0418\U+042E
 10
1730.0
 20
710.0
 30
0.0
 11
1670.0
 21
710.0
 31
0.0
  0
LINE
  5
72
  8
\U+041F\U+041E_\U+0423\U+041C\U+041E\U+041B\U+0427\U+0410\U+041D\U+0418\U+042E
 10
1730.0
 20
681.875
 30
0.0
 11
1670.0
 21
681.875
 31
0.0
  0
LINE
  5
73
  8
\U+041F\U+041E_\U+0423\U+041C\U+041E\U+041B\U+0427\U+0410\U+041D\U+0418\U+042E
 10
1730.0
 20
681.8750000000001
 30
0.0
 11
1730.0
 21
710.0
 31
0.0
  0
LINE
  5
74
  8
\U+041F\U+041E_\U+0423\U+041C\U+041E\U+041B\U+0427\U+0410\U+041D\U+0418\U+042E
 10
1670.0
 20
710.0
 30
0.0
 11
1670.0
 21
681.875
 31
0.0
  0
LINE
  5
75
  8
\U+041F\U+041E_\U+0423\U+041C\U+041E\U+041B\U+0427\U+0410\U+041D\U+0418\U+042E
 10
2140.0
 20
1080.0
 30
0.0
 11
1260.0
 21
1080.0
 31
0.0
  0
ARC
  5
76
  8
\U+041F\U+041E_\U+0423\U+041C\U+041E\U+041B\U+0427\U+0410\U+041D\U+0418\U+042E
 10
1260.0
 20
1060.0
 30
0.0
 40
20.0
 50
90.0
 51
180.0
  0
LINE
  5
77
  8
\U+041F\U+041E_\U+0423\U+041C\U+041E\U+041B\U+0427\U+0410\U+041D\U+0418\U+042E
 10
2160.0
 20
40.0
 30
0.0
 11
2160.0
 21
1060.0
 31
0.0
  0
LINE
  5
78
  8
\U+041F\U+041E_\U+0423\U+041C\U+041E\U+041B\U+0427\U+0410\U+041D\U+0418\U+042E
 10
1240.0
 20
1060.0
 30
0.0
 11
1240.0
 21
40.0
 31
0.0
  0
ARC
  5
79
  8
\U+041F\U+041E_\U+0423\U+041C\U+041E\U+041B\U+0427\U+0410\U+041D\U+0418\U+042E
 10
-2040.0
 20
540.0
 30
0.0
 40
10.0
 50
179.9999999999987
 51
270.0
210
0.0
220
0.0
230
-1.0
  0
LINE
  5
7A
  8
\U+041F\U+041E_\U+0423\U+041C\U+041E\U+041B\U+0427\U+0410\U+041D\U+0418\U+042E
 10
2040.0
 20
530.0
 30
0.0
 11
1360.0
 21
530.0
 31
0.0
  0
ARC
  5
7B
  8
\U+041F\U+041E_\U+0423\U+041C\U+041E\U+041B\U+0427\U+0410\U+041D\U+0418\U+042E
 10
-1360.0
 20
540.0
 30
0.0
 40
10.0
 50
270.0
 51
0.0
210
0.0
220
0.0
230
-1.0
  0
LINE
  5
7C
  8
\U+041F\U+041E_\U+0423\U+041C\U+041E\U+041B\U+0427\U+0410\U+041D\U+0418\U+042E
 10
1350.0
 20
540.0
 30
0.0
 11
1350.0
 21
630.0
 31
0.0
  0
LINE
  5
7D
  8
\U+041F\U+041E_\U+0423\U+041C\U+041E\U+041B\U+0427\U+0410\U+041D\U+0418\U+042E
 10
1350.0
 20
630.0
 30
0.0
 11
1380.0
 21
630.0
 31
0.0
  0
LINE
  5
7E
  8
\U+041F\U+041E_\U+0423\U+041C\U+041E\U+041B\U+0427\U+0410\U+041D\U+0418\U+042E
 10
1380.0
 20
630.0
 30
0.0
 11
1380.0
 21
600.0
 31
0.0
  0
LINE
  5
7F
  8
\U+041F\U+041E_\U+0423\U+041C\U+041E\U+041B\U+0427\U+0410\U+041D\U+0418\U+042E
 10
1380.0
 20
600.0
 30
0.0
 11
1670.0
 21
600.0
 31
0.0
  0
LINE
  5
80
  8
\U+041F\U+041E_\U+0423\U+041C\U+041E\U+041B\U+0427\U+0410\U+041D\U+0418\U+042E
 10
1670.0
 20
600.0
 30
0.0
 11
1670.0
 21
630.0
 31
0.0
  0
LINE
  5
81
  8
\U+041F\U+041E_\U+0423\U+041C\U+041E\U+041B\U+0427\U+0410\U+041D\U+0418\U+042E
 10
1670.0
 20
630.0
 30
0.0
 11
1730.0
 21
630.0
 31
0.0
  0
LINE
  5
82
  8
\U+041F\U+041E_\U+0423\U+041C\U+041E\U+041B\U+0427\U+0410\U+041D\U+0418\U+042E
 10
1730.0
 20
630.0
 30
0.0
 11
1730.0
 21
600.0
 31
0.0
  0
LINE
  5
83
  8
\U+041F\U+041E_\U+0423\U+041C\U+041E\U+041B\U+0427\U+0410\U+041D\U+0418\U+042E
 10
1730.0
 20
600.0
 30
0.0
 11
2020.0
 21
600.0
 31
0.0
  0
LINE
  5
84
  8
\U+041F\U+041E_\U+0423\U+041C\U+041E\U+041B\U+0427\U+0410\U+041D\U+0418\U+042E
 10
2020.0
 20
600.0
 30
0.0
 11
2020.0
 21
630.0
 31
0.0
  0
LINE
  5
85
  8
\U+041F\U+041E_\U+0423\U+041C\U+041E\U+041B\U+0427\U+0410\U+041D\U+0418\U+042E
 10
2020.0
 20
630.0
 30
0.0
 11
2050.0
 21
630.0
 31
0.0
  0
LINE
  5
86
  8
\U+041F\U+041E_\U+0423\U+041C\U+041E\U+041B\U+0427\U+0410\U+041D\U+0418\U+042E
 10
2050.0
 20
630.0
 30
0.0
 11
2050.0
 21
540.0000000000002
 31
0.0
  0
ARC
  5
87
  8
\U+041F\U+041E_\U+0423\U+041C\U+041E\U+041B\U+0427\U+0410\U+041D\U+0418\U+042E
 10
1310.0
 20
660.0
 30
0.0
 40
10.0
 50
180.0
 51
270.0000000000013
  0
LINE
  5
88
  8
\U+041F\U+041E_\U+0423\U+041C\U+041E\U+041B\U+0427\U+0410\U+041D\U+0418\U+042E
 10
1310.0
 20
650.0
 30
0.0
 11
2090.0
 21
650.0
 31
0.0
  0
ARC
  5
89
  8
\U+041F\U+041E_\U+0423\U+041C\U+041E\U+041B\U+0427\U+0410\U+041D\U+0418\U+042E
 10
2090.0
 20
660.0
 30
0.0
 40
10.0
 50
270.0
 51
0.0
  0
LINE
  5
8A
  8
\U+041F\U+041E_\U+0423\U+041C\U+041E\U+041B\U+0427\U+0410\U+041D\U+0418\U+042E
 10
2100.0
 20
660.0
 30
0.0
 11
2100.0
 21
830.0
 31
0.0
  0
LINE
  5
8B
  8
\U+041F\U+041E_\U+0423\U+041C\U+041E\U+041B\U+0427\U+0410\U+041D\U+0418\U+042E
 10
2100.0
 20
830.0
 30
0.0
 11
2130.0
 21
830.0
 31
0.0
  0
LINE
  5
8C
  8
\U+041F\U+041E_\U+0423\U+041C\U+041E\U+041B\U+0427\U+0410\U+041D\U+0418\U+042E
 10
2130.0
 20
830.0
 30
0.0
 11
2130.0
 21
860.0
 31
0.0
  0
LINE
  5
8D
  8
\U+041F\U+041E_\U+0423\U+041C\U+041E\U+041B\U+0427\U+0410\U+041D\U+0418\U+042E
 10
2130.0
 20
860.0
 30
0.0
 11
2100.0
 21
860.0
 31
0.0
  0
LINE
  5
8E
  8
\U+041F\U+041E_\U+0423\U+041C\U+041E\U+041B\U+0427\U+0410\U+041D\U+0418\U+042E
 10
2100.0
 20
860.0
 30
0.0
 11
2100.0
 21
1040.0
 31
0.0
  0
ARC
  5
8F
  8
\U+041F\U+041E_\U+0423\U+041C\U+041E\U+041B\U+0427\U+0410\U+041D\U+0418\U+042E
 10
2090.0
 20
1040.0
 30
0.0
 40
10.0
 50
0.0
 51
90.0
  0
LINE
  5
90
  8
\U+041F\U+041E_\U+0423\U+041C\U+041E\U+041B\U+0427\U+0410\U+041D\U+0418\U+042E
 10
2090.0
 20
1050.0
 30
0.0
 11
1310.0
 21
1050.0
 31
0.0
  0
ARC
  5
91
  8
\U+041F\U+041E_\U+0423\U+041C\U+041E\U+041B\U+0427\U+0410\U+041D\U+0418\U+042E
 10
1310.0
 20
1040.0
 30
0.0
 40
10.0
 50
90.0
 51
180.0
  0
LINE
  5
92
  8
\U+041F\U+041E_\U+0423\U+041C\U+041E\U+041B\U+0427\U+0410\U+041D\U+0418\U+042E
 10
1300.0
 20
1040.0
 30
0.0
 11
1300.0
 21
860.0
 31
0.0
  0
LINE
  5
93
  8
\U+041F\U+041E_\U+0423\U+041C\U+041E\U+041B\U+0427\U+0410\U+041D\U+0418\U+042E
 10
1300.0
 20
860.0
 30
0.0
 11
1270.0
 21
860.0
 31
0.0
  0
LINE
  5
94
  8
\U+041F\U+041E_\U+0423\U+041C\U+041E\U+041B\U+0427\U+0410\U+041D\U+0418\U+042E
 10
1270.0
 20
860.0
 30
0.0
 11
1270.0
 21
830.0
 31
0.0
  0
LINE
  5
95
  8
\U+041F\U+041E_\U+0423\U+041C\U+041E\U+041B\U+0427\U+0410\U+041D\U+0418\U+042E
 10
1270.0
 20
830.0
 30
0.0
 11
1300.0
 21
830.0
 31
0.0
  0
LINE
  5
96
  8
\U+041F\U+041E_\U+0423\U+041C\U+041E\U+041B\U+0427\U+0410\U+041D\U+0418\U+042E
 10
1300.0
 20
830.0
 30
0.0
 11
1300.0
 21
660.0
 31
0.0
  0
ARC
  5
97
  8
\U+041F\U+041E_\U+0423\U+041C\U+041E\U+041B\U+0427\U+0410\U+041D\U+0418\U+042E
 10
2140.0
 20
1060.0
 30
0.0
 40
20.0
 50
0.0
 51
90.0
  0
LINE
  5
98
  8
\U+041F\U+041E_\U+0423\U+041C\U+041E\U+041B\U+0427\U+0410\U+041D\U+0418\U+042E
 10
1620.0
 20
425.625
 30
0.0
 11
1620.0
 21
423.4375
 31
0.0
  0
LINE
  5
99
  8
\U+041F\U+041E_\U+0423\U+041C\U+041E\U+041B\U+0427\U+0410\U+041D\U+0418\U+042E
 10
1620.0
 20
423.4375
 30
0.0
 11
1650.0
 21
423.4375
 31
0.0
  0
LINE
  5
9A
  8
\U+041F\U+041E_\U+0423\U+041C\U+041E\U+041B\U+0427\U+0410\U+041D\U+0418\U+042E
 10
1650.0
 20
423.4375
 30
0.0
 11
1650.0
 21
450.0
 31
0.0
  0
LINE
  5
9B
  8
\U+041F\U+041E_\U+0423\U+041C\U+041E\U+041B\U+0427\U+0410\U+041D\U+0418\U+042E
 10
1650.0
 20
450.0
 30
0.0
 11
1620.0
 21
450.0
 31
0.0
  0
LINE
  5
9C
  8
\U+041F\U+041E_\U+0423\U+041C\U+041E\U+041B\U+0427\U+0410\U+041D\U+0418\U+042E
 10
1620.0
 20
450.0
 30
0.0
 11
1620.0
 21
423.4375
 31
0.0
  0
LINE
  5
9D
  8
\U+041F\U+041E_\U+0423\U+041C\U+041E\U+041B\U+0427\U+0410\U+041D\U+0418\U+042E
 10
1690.0
 20
40.0
 30
0.0
 11
1650.0
 21
40.0
 31
0.0
  0
LINE
  5
9E
  8
\U+041F\U+041E_\U+0423\U+041C\U+041E\U+041B\U+0427\U+0410\U+041D\U+0418\U+042E
 10
1650.0
 20
40.0
 30
0.0
 11
1650.0
 21
94.96263549270218
 31
0.0
  0
LINE
  5
9F
  8
\U+041F\U+041E_\U+0423\U+041C\U+041E\U+041B\U+0427\U+0410\U+041D\U+0418\U+042E
 10
1650.0
 20
94.96263549270218
 30
0.0
 11
1620.0
 21
94.96263549270215
 31
0.0
  0
LINE
  5
A0
  8
\U+041F\U+041E_\U+0423\U+041C\U+041E\U+041B\U+0427\U+0410\U+041D\U+0418\U+042E
 10
1620.0
 20
94.96263549270215
 30
0.0
 11
1620.0
 21
40.00000000000003
 31
0.0
  0
LINE
  5
A1
  8
\U+041F\U+041E_\U+0423\U+041C\U+041E\U+041B\U+0427\U+0410\U+041D\U+0418\U+042E
 10
1620.0
 20
40.00000000000003
 30
0.0
 11
1530.0
 21
40.0
 31
0.0
  0
LINE
  5
A2
  8
\U+041F\U+041E_\U+0423\U+041C\U+041E\U+041B\U+0427\U+0410\U+041D\U+0418\U+042E
 10
1530.0
 20
40.0
 30
0.0
 11
1530.0
 21
100.0
 31
0.0
  0
LINE
  5
A3
  8
\U+041F\U+041E_\U+0423\U+041C\U+041E\U+041B\U+0427\U+0410\U+041D\U+0418\U+042E
 10
1530.0
 20
100.0
 30
0.0
 11
1580.0
 21
200.0
 31
0.0
  0
LINE
  5
A4
  8
\U+041F\U+041E_\U+0423\U+041C\U+041E\U+041B\U+0427\U+0410\U+041D\U+0418\U+042E
 10
1580.0
 20
200.0
 30
0.0
 11
1580.0
 21
490.0
 31
0.0
  0
LINE
  5
A5
  8
\U+041F\U+041E_\U+0423\U+041C\U+041E\U+041B\U+0427\U+0410\U+041D\U+0418\U+042E
 10
1580.0
 20
490.0
 30
0.0
 11
1690.0
 21
490.0
 31
0.0
  0
LINE
  5
A6
  8
\U+041F\U+041E_\U+0423\U+041C\U+041E\U+041B\U+0427\U+0410\U+041D\U+0418\U+042E
 10
1690.0
 20
490.0
 30
0.0
 11
1690.0
 21
200.0
 31
0.0
  0
LINE
  5
A7
  8
\U+041F\U+041E_\U+0423\U+041C\U+041E\U+041B\U+0427\U+0410\U+041D\U+0418\U+042E
 10
1690.0
 20
200.0
 30
0.0
 11
1740.0
 21
100.0
 31
0.0
  0
LINE
  5
A8
  8
\U+041F\U+041E_\U+0423\U+041C\U+041E\U+041B\U+0427\U+0410\U+041D\U+0418\U+042E
 10
1740.0
 20
100.0
 30
0.0
 11
1740.0
 21
40.0
 31
0.0
  0
LINE
  5
A9
  8
\U+041F\U+041E_\U+0423\U+041C\U+041E\U+041B\U+0427\U+0410\U+041D\U+0418\U+042E
 10
1740.0
 20
40.0
 30
0.0
 11
1690.0
 21
40.0
 31
0.0
  0
LINE
  5
AA
  8
\U+041F\U+041E_\U+0423\U+041C\U+041E\U+041B\U+0427\U+0410\U+041D\U+0418\U+042E
 10
1385.0
 20
425.625
 30
0.0
 11
1385.0
 21
423.4375
 31
0.0
  0
LINE
  5
AB
  8
\U+041F\U+041E_\U+0423\U+041C\U+041E\U+041B\U+0427\U+0410\U+041D\U+0418\U+042E
 10
1385.0
 20
423.4375
 30
0.0
 11
1415.0
 21
423.4375
 31
0.0
  0
LINE
  5
AC
  8
\U+041F\U+041E_\U+0423\U+041C\U+041E\U+041B\U+0427\U+0410\U+041D\U+0418\U+042E
 10
1415.0
 20
423.4375
 30
0.0
 11
1415.0
 21
450.0
 31
0.0
  0
LINE
  5
AD
  8
\U+041F\U+041E_\U+0423\U+041C\U+041E\U+041B\U+0427\U+0410\U+041D\U+0418\U+042E
 10
1415.0
 20
450.0
 30
0.0
 11
1385.0
 21
450.0
 31
0.0
  0
LINE
  5
AE
  8
\U+041F\U+041E_\U+0423\U+041C\U+041E\U+041B\U+0427\U+0410\U+041D\U+0418\U+042E
 10
1385.0
 20
450.0
 30
0.0
 11
1385.0
 21
423.4375
 31
0.0
  0
LINE
  5
AF
  8
\U+041F\U+041E_\U+0423\U+041C\U+041E\U+041B\U+0427\U+0410\U+041D\U+0418\U+042E
 10
1455.0
 20
40.0
 30
0.0
 11
1415.0
 21
40.0
 31
0.0
  0
LINE
  5
B0
  8
\U+041F\U+041E_\U+0423\U+041C\U+041E\U+041B\U+0427\U+0410\U+041D\U+0418\U+042E
 10
1415.0
 20
40.0
 30
0.0
 11
1415.0
 21
94.96263549270218
 31
0.0
  0
LINE
  5
B1
  8
\U+041F\U+041E_\U+0423\U+041C\U+041E\U+041B\U+0427\U+0410\U+041D\U+0418\U+042E
 10
1415.0
 20
94.96263549270218
 30
0.0
 11
1385.0
 21
94.96263549270215
 31
0.0
  0
LINE
  5
B2
  8
\U+041F\U+041E_\U+0423\U+041C\U+041E\U+041B\U+0427\U+0410\U+041D\U+0418\U+042E
 10
1385.0
 20
94.96263549270215
 30
0.0
 11
1385.0
 21
40.00000000000003
 31
0.0
  0
LINE
  5
B3
  8
\U+041F\U+041E_\U+0423\U+041C\U+041E\U+041B\U+0427\U+0410\U+041D\U+0418\U+042E
 10
1385.0
 20
40.00000000000003
 30
0.0
 11
1295.0
 21
40.0
 31
0.0
  0
LINE
  5
B4
  8
\U+041F\U+041E_\U+0423\U+041C\U+041E\U+041B\U+0427\U+0410\U+041D\U+0418\U+042E
 10
1295.0
 20
40.0
 30
0.0
 11
1295.0
 21
100.0
 31
0.0
  0
LINE
  5
B5
  8
\U+041F\U+041E_\U+0423\U+041C\U+041E\U+041B\U+0427\U+0410\U+041D\U+0418\U+042E
 10
1295.0
 20
100.0
 30
0.0
 11
1345.0
 21
200.0
 31
0.0
  0
LINE
  5
B6
  8
\U+041F\U+041E_\U+0423\U+041C\U+041E\U+041B\U+0427\U+0410\U+041D\U+0418\U+042E
 10
1345.0
 20
200.0
 30
0.0
 11
1345.0
 21
490.0
 31
0.0
  0
LINE
  5
B7
  8
\U+041F\U+041E_\U+0423\U+041C\U+041E\U+041B\U+0427\U+0410\U+041D\U+0418\U+042E
 10
1345.0
 20
490.0
 30
0.0
 11
1455.0
 21
490.0
 31
0.0
  0
LINE
  5
B8
  8
\U+041F\U+041E_\U+0423\U+041C\U+041E\U+041B\U+0427\U+0410\U+041D\U+0418\U+042E
 10
1455.0
 20
490.0
 30
0.0
 11
1455.0
 21
200.0
 31
0.0
  0
LINE
  5
B9
  8
\U+041F\U+041E_\U+0423\U+041C\U+041E\U+041B\U+0427\U+0410\U+041D\U+0418\U+042E
 10
1455.0
 20
200.0
 30
0.0
 11
1505.0
 21
100.0
 31
0.0
  0
LINE
  5
BA
  8
\U+041F\U+041E_\U+0423\U+041C\U+041E\U+041B\U+0427\U+0410\U+041D\U+0418\U+042E
 10
1505.0
 20
100.0
 30
0.0
 11
1505.0
 21
40.0
 31
0.0
  0
LINE
  5
BB
  8
\U+041F\U+041E_\U+0423\U+041C\U+041E\U+041B\U+0427\U+0410\U+041D\U+0418\U+042E
 10
1505.0
 20
40.0
 30
0.0
 11
1455.0
 21
40.0
 31
0.0
  0
LINE
  5
BC
  8
\U+041F\U+041E_\U+0423\U+041C\U+041E\U+041B\U+0427\U+0410\U+041D\U+0418\U+042E
 10
1831.236470723307
 20
379.9999999999999
 30
0.0
 11
1831.236470723307
 21
443.4322188880592
 31
0.0
  0
LINE
  5
BD
  8
\U+041F\U+041E_\U+0423\U+041C\U+041E\U+041B\U+0427\U+0410\U+041D\U+0418\U+042E
 10
1831.236470723307
 20
443.4322188880592
 30
0.0
 11
1861.873168823268
 21
489.999999999999
 31
0.0
  0
LINE
  5
BE
  8
\U+041F\U+041E_\U+0423\U+041C\U+041E\U+041B\U+0427\U+0410\U+041D\U+0418\U+042E
 10
1861.873168823268
 20
489.999999999999
 30
0.0
 11
1961.873168823268
 21
489.999999999999
 31
0.0
  0
LINE
  5
BF
  8
\U+041F\U+041E_\U+0423\U+041C\U+041E\U+041B\U+0427\U+0410\U+041D\U+0418\U+042E
 10
1961.873168823268
 20
489.999999999999
 30
0.0
 11
1961.873168823268
 21
434.9999999999994
 31
0.0
  0
LINE
  5
C0
  8
\U+041F\U+041E_\U+0423\U+041C\U+041E\U+041B\U+0427\U+0410\U+041D\U+0418\U+042E
 10
1961.873168823268
 20
434.9999999999994
 30
0.0
 11
1990.623168823268
 21
434.9999999999994
 31
0.0
  0
LINE
  5
C1
  8
\U+041F\U+041E_\U+0423\U+041C\U+041E\U+041B\U+0427\U+0410\U+041D\U+0418\U+042E
 10
1990.623168823268
 20
434.9999999999994
 30
0.0
 11
1990.623168823268
 21
489.999999999999
 31
0.0
  0
LINE
  5
C2
  8
\U+041F\U+041E_\U+0423\U+041C\U+041E\U+041B\U+0427\U+0410\U+041D\U+0418\U+042E
 10
1990.623168823268
 20
489.999999999999
 30
0.0
 11
2081.873168823268
 21
489.9999999999995
 31
0.0
  0
LINE
  5
C3
  8
\U+041F\U+041E_\U+0423\U+041C\U+041E\U+041B\U+0427\U+0410\U+041D\U+0418\U+042E
 10
2081.873168823268
 20
489.9999999999995
 30
0.0
 11
2112.509866923229
 21
443.4322188880591
 31
0.0
  0
LINE
  5
C4
  8
\U+041F\U+041E_\U+0423\U+041C\U+041E\U+041B\U+0427\U+0410\U+041D\U+0418\U+042E
 10
2112.509866923229
 20
443.4322188880591
 30
0.0
 11
2112.509866923229
 21
380.0000000000001
 31
0.0
  0
LINE
  5
C5
  8
\U+041F\U+041E_\U+0423\U+041C\U+041E\U+041B\U+0427\U+0410\U+041D\U+0418\U+042E
 10
2112.509866923229
 20
380.0000000000001
 30
0.0
 11
1831.236470723307
 21
379.9999999999999
 31
0.0
  0
LINE
  5
C6
  8
\U+041F\U+041E_\U+0423\U+041C\U+041E\U+041B\U+0427\U+0410\U+041D\U+0418\U+042E
 10
1829.36330190004
 20
220.0000000000009
 30
0.0
 11
1829.36330190004
 21
283.4322188880602
 31
0.0
  0
LINE
  5
C7
  8
\U+041F\U+041E_\U+0423\U+041C\U+041E\U+041B\U+0427\U+0410\U+041D\U+0418\U+042E
 10
1829.36330190004
 20
283.4322188880602
 30
0.0
 11
1860.0
 21
330.0
 31
0.0
  0
LINE
  5
C8
  8
\U+041F\U+041E_\U+0423\U+041C\U+041E\U+041B\U+0427\U+0410\U+041D\U+0418\U+042E
 10
1860.0
 20
330.0
 30
0.0
 11
1960.0
 21
330.0
 31
0.0
  0
LINE
  5
C9
  8
\U+041F\U+041E_\U+0423\U+041C\U+041E\U+041B\U+0427\U+0410\U+041D\U+0418\U+042E
 10
1960.0
 20
330.0
 30
0.0
 11
1960.0
 21
275.0000000000004
 31
0.0
  0
LINE
  5
CA
  8
\U+041F\U+041E_\U+0423\U+041C\U+041E\U+041B\U+0427\U+0410\U+041D\U+0418\U+042E
 10
1960.0
 20
275.0000000000004
 30
0.0
 11
1988.75
 21
275.0000000000004
 31
0.0
  0
LINE
  5
CB
  8
\U+041F\U+041E_\U+0423\U+041C\U+041E\U+041B\U+0427\U+0410\U+041D\U+0418\U+042E
 10
1988.75
 20
275.0000000000004
 30
0.0
 11
1988.75
 21
330.0
 31
0.0
  0
LINE
  5
CC
  8
\U+041F\U+041E_\U+0423\U+041C\U+041E\U+041B\U+0427\U+0410\U+041D\U+0418\U+042E
 10
1988.75
 20
330.0
 30
0.0
 11
2080.0
 21
330.0000000000005
 31
0.0
  0
LINE
  5
CD
  8
\U+041F\U+041E_\U+0423\U+041C\U+041E\U+041B\U+0427\U+0410\U+041D\U+0418\U+042E
 10
2080.0
 20
330.0000000000005
 30
0.0
 11
2110.636698099961
 21
283.4322188880601
 31
0.0
  0
LINE
  5
CE
  8
\U+041F\U+041E_\U+0423\U+041C\U+041E\U+041B\U+0427\U+0410\U+041D\U+0418\U+042E
 10
2110.636698099961
 20
283.4322188880601
 30
0.0
 11
2110.636698099961
 21
220.0000000000011
 31
0.0
  0
LINE
  5
CF
  8
\U+041F\U+041E_\U+0423\U+041C\U+041E\U+041B\U+0427\U+0410\U+041D\U+0418\U+042E
 10
2110.636698099961
 20
220.0000000000011
 30
0.0
 11
1829.36330190004
 21
220.0000000000009
 31
0.0
  0
ENDSEC
  0
EOF
